<svg width="23" height="24" viewBox="0 0 23 24" fill="none" xmlns="http://www.w3.org/2000/svg">
<path d="M23 5.14281C23 4.2335 22.6538 3.36143 22.0376 2.71844C21.4214 2.07546 20.5857 1.71424 19.7143 1.71424H18.8929V0.881202C18.8929 0.419952 18.553 0.0240594 18.111 0.00102372C17.9999 -0.00456014 17.8889 0.0134438 17.7847 0.0539447C17.6805 0.0944456 17.5853 0.1566 17.5048 0.236642C17.4243 0.316684 17.3602 0.412947 17.3164 0.519598C17.2726 0.626249 17.25 0.741067 17.25 0.857095V1.71424H5.75V0.881202C5.75 0.419952 5.41013 0.0240594 4.9681 0.00102372C4.85704 -0.00456014 4.74604 0.0134438 4.64184 0.0539447C4.53764 0.0944456 4.44241 0.1566 4.36191 0.236642C4.28141 0.316684 4.21732 0.412947 4.17353 0.519598C4.12974 0.626249 4.10715 0.741067 4.10714 0.857095V1.71424H3.28571C2.41429 1.71424 1.57855 2.07546 0.962363 2.71844C0.346173 3.36143 0 4.2335 0 5.14281V5.78567C0 5.8425 0.0216358 5.897 0.0601478 5.93719C0.0986597 5.97738 0.150893 5.99995 0.205357 5.99995H22.7946C22.8491 5.99995 22.9013 5.97738 22.9399 5.93719C22.9784 5.897 23 5.8425 23 5.78567V5.14281ZM0 20.5714C0 21.4807 0.346173 22.3528 0.962363 22.9957C1.57855 23.6387 2.41429 24 3.28571 24H19.7143C20.5857 24 21.4214 23.6387 22.0376 22.9957C22.6538 22.3528 23 21.4807 23 20.5714V7.87495C23 7.83233 22.9838 7.79145 22.9549 7.76131C22.926 7.73117 22.8868 7.71424 22.846 7.71424H0.154018C0.11317 7.71424 0.0739948 7.73117 0.0451109 7.76131C0.0162269 7.79145 0 7.83233 0 7.87495V20.5714ZM17.6607 9.42852C17.9044 9.42852 18.1426 9.50393 18.3453 9.64521C18.5479 9.78648 18.7058 9.98728 18.7991 10.2222C18.8923 10.4572 18.9167 10.7157 18.8692 10.9651C18.8216 11.2145 18.7043 11.4436 18.532 11.6234C18.3597 11.8032 18.1401 11.9256 17.9011 11.9752C17.6621 12.0249 17.4143 11.9994 17.1892 11.9021C16.9641 11.8048 16.7716 11.64 16.6362 11.4285C16.5008 11.2171 16.4286 10.9685 16.4286 10.7142C16.4286 10.3732 16.5584 10.0462 16.7895 9.8051C17.0205 9.56398 17.3339 9.42852 17.6607 9.42852ZM17.6607 13.7142C17.9044 13.7142 18.1426 13.7896 18.3453 13.9309C18.5479 14.0722 18.7058 14.273 18.7991 14.5079C18.8923 14.7429 18.9167 15.0014 18.8692 15.2508C18.8216 15.5002 18.7043 15.7293 18.532 15.9091C18.3597 16.0889 18.1401 16.2114 17.9011 16.261C17.6621 16.3106 17.4143 16.2851 17.1892 16.1878C16.9641 16.0905 16.7716 15.9257 16.6362 15.7143C16.5008 15.5028 16.4286 15.2542 16.4286 15C16.4286 14.659 16.5584 14.3319 16.7895 14.0908C17.0205 13.8497 17.3339 13.7142 17.6607 13.7142ZM13.5536 9.42852C13.7973 9.42852 14.0355 9.50393 14.2381 9.64521C14.4407 9.78648 14.5987 9.98728 14.6919 10.2222C14.7852 10.4572 14.8096 10.7157 14.762 10.9651C14.7145 11.2145 14.5971 11.4436 14.4248 11.6234C14.2525 11.8032 14.033 11.9256 13.794 11.9752C13.5549 12.0249 13.3072 11.9994 13.0821 11.9021C12.8569 11.8048 12.6645 11.64 12.5291 11.4285C12.3937 11.2171 12.3214 10.9685 12.3214 10.7142C12.3214 10.3732 12.4512 10.0462 12.6823 9.8051C12.9134 9.56398 13.2268 9.42852 13.5536 9.42852ZM13.5536 13.7142C13.7973 13.7142 14.0355 13.7896 14.2381 13.9309C14.4407 14.0722 14.5987 14.273 14.6919 14.5079C14.7852 14.7429 14.8096 15.0014 14.762 15.2508C14.7145 15.5002 14.5971 15.7293 14.4248 15.9091C14.2525 16.0889 14.033 16.2114 13.794 16.261C13.5549 16.3106 13.3072 16.2851 13.0821 16.1878C12.8569 16.0905 12.6645 15.9257 12.5291 15.7143C12.3937 15.5028 12.3214 15.2542 12.3214 15C12.3214 14.659 12.4512 14.3319 12.6823 14.0908C12.9134 13.8497 13.2268 13.7142 13.5536 13.7142ZM13.5536 18C13.7973 18 14.0355 18.0754 14.2381 18.2166C14.4407 18.3579 14.5987 18.5587 14.6919 18.7936C14.7852 19.0286 14.8096 19.2871 14.762 19.5365C14.7145 19.7859 14.5971 20.015 14.4248 20.1948C14.2525 20.3746 14.033 20.4971 13.794 20.5467C13.5549 20.5963 13.3072 20.5708 13.0821 20.4735C12.8569 20.3762 12.6645 20.2114 12.5291 20C12.3937 19.7885 12.3214 19.54 12.3214 19.2857C12.3214 18.9447 12.4512 18.6177 12.6823 18.3765C12.9134 18.1354 13.2268 18 13.5536 18ZM9.44643 13.7142C9.69012 13.7142 9.92834 13.7896 10.131 13.9309C10.3336 14.0722 10.4915 14.273 10.5848 14.5079C10.678 14.7429 10.7024 15.0014 10.6549 15.2508C10.6074 15.5002 10.49 15.7293 10.3177 15.9091C10.1454 16.0889 9.92582 16.2114 9.68681 16.261C9.4478 16.3106 9.20005 16.2851 8.97491 16.1878C8.74976 16.0905 8.55733 15.9257 8.42194 15.7143C8.28655 15.5028 8.21429 15.2542 8.21429 15C8.21429 14.659 8.3441 14.3319 8.57517 14.0908C8.80624 13.8497 9.11964 13.7142 9.44643 13.7142ZM9.44643 18C9.69012 18 9.92834 18.0754 10.131 18.2166C10.3336 18.3579 10.4915 18.5587 10.5848 18.7936C10.678 19.0286 10.7024 19.2871 10.6549 19.5365C10.6074 19.7859 10.49 20.015 10.3177 20.1948C10.1454 20.3746 9.92582 20.4971 9.68681 20.5467C9.4478 20.5963 9.20005 20.5708 8.97491 20.4735C8.74976 20.3762 8.55733 20.2114 8.42194 20C8.28655 19.7885 8.21429 19.54 8.21429 19.2857C8.21429 18.9447 8.3441 18.6177 8.57517 18.3765C8.80624 18.1354 9.11964 18 9.44643 18ZM5.33929 13.7142C5.58298 13.7142 5.8212 13.7896 6.02383 13.9309C6.22645 14.0722 6.38438 14.273 6.47764 14.5079C6.5709 14.7429 6.5953 15.0014 6.54775 15.2508C6.50021 15.5002 6.38286 15.7293 6.21054 15.9091C6.03822 16.0889 5.81868 16.2114 5.57967 16.261C5.34065 16.3106 5.09291 16.2851 4.86777 16.1878C4.64262 16.0905 4.45019 15.9257 4.3148 15.7143C4.17941 15.5028 4.10714 15.2542 4.10714 15C4.10714 14.659 4.23696 14.3319 4.46803 14.0908C4.6991 13.8497 5.0125 13.7142 5.33929 13.7142ZM5.33929 18C5.58298 18 5.8212 18.0754 6.02383 18.2166C6.22645 18.3579 6.38438 18.5587 6.47764 18.7936C6.5709 19.0286 6.5953 19.2871 6.54775 19.5365C6.50021 19.7859 6.38286 20.015 6.21054 20.1948C6.03822 20.3746 5.81868 20.4971 5.57967 20.5467C5.34065 20.5963 5.09291 20.5708 4.86777 20.4735C4.64262 20.3762 4.45019 20.2114 4.3148 20C4.17941 19.7885 4.10714 19.54 4.10714 19.2857C4.10714 18.9447 4.23696 18.6177 4.46803 18.3765C4.6991 18.1354 5.0125 18 5.33929 18Z" fill="black"/>
</svg>
