<svg width="17" height="24" viewBox="0 0 17 24" fill="none" xmlns="http://www.w3.org/2000/svg">
<path d="M8.08108 0.5C3.62537 0.5 0 4.02457 0 8.3552C0 10.4176 0.924779 13.1602 2.74858 16.5072C4.21327 19.1944 5.90777 21.6243 6.78912 22.8334C6.93804 23.04 7.13277 23.208 7.35749 23.3238C7.58222 23.4396 7.83064 23.5 8.0826 23.5C8.33455 23.5 8.58297 23.4396 8.8077 23.3238C9.03242 23.208 9.22715 23.04 9.37607 22.8334C10.2559 21.6243 11.9519 19.1944 13.4166 16.5072C15.2374 13.1613 16.1622 10.4186 16.1622 8.3552C16.1622 4.02457 12.5368 0.5 8.08108 0.5ZM8.08108 12.0004C7.44177 12.0004 6.81681 11.8077 6.28524 11.4467C5.75367 11.0856 5.33936 10.5724 5.0947 9.97203C4.85005 9.37162 4.78603 8.71095 4.91076 8.07356C5.03548 7.43617 5.34334 6.85069 5.79541 6.39115C6.24747 5.93162 6.82343 5.61868 7.45046 5.49189C8.07749 5.36511 8.72743 5.43018 9.31808 5.67887C9.90873 5.92757 10.4136 6.34873 10.7687 6.88908C11.1239 7.42943 11.3135 8.06472 11.3135 8.71459C11.3126 9.58576 10.9717 10.421 10.3657 11.037C9.75973 11.653 8.93809 11.9995 8.08108 12.0004Z" fill="#1C1C1C"/>
</svg>
