<svg width="23" height="20" viewBox="0 0 23 20" fill="none" xmlns="http://www.w3.org/2000/svg">
<path d="M0 16.1607C0 16.9232 0.302901 17.6545 0.842068 18.1937C1.38124 18.7328 2.1125 19.0357 2.875 19.0357H20.125C20.8875 19.0357 21.6188 18.7328 22.1579 18.1937C22.6971 17.6545 23 16.9232 23 16.1607V8.25447H0V16.1607ZM3.38839 12.2589C3.38839 11.8505 3.55066 11.4587 3.8395 11.1699C4.12834 10.881 4.52009 10.7188 4.92857 10.7188H7.39286C7.80134 10.7188 8.19309 10.881 8.48193 11.1699C8.77077 11.4587 8.93304 11.8505 8.93304 12.2589V13.2857C8.93304 13.6942 8.77077 14.086 8.48193 14.3748C8.19309 14.6636 7.80134 14.8259 7.39286 14.8259H4.92857C4.52009 14.8259 4.12834 14.6636 3.8395 14.3748C3.55066 14.086 3.38839 13.6942 3.38839 13.2857V12.2589ZM20.125 0.964294H2.875C2.1125 0.964294 1.38124 1.2672 0.842068 1.80636C0.302901 2.34553 0 3.0768 0 3.83929V5.17412H23V3.83929C23 3.0768 22.6971 2.34553 22.1579 1.80636C21.6188 1.2672 20.8875 0.964294 20.125 0.964294Z" fill="black"/>
</svg>
